PathFileType	4	(X/Y/Z)	24_2_6_p0_0-394.trc
DataRate	CameraRate	NumFrames	NumMarkers	Units	OrigDataRate	OrigDataStartFrame	OrigNumFrames
60.0	60.0	7	27	m	60.0	246	395
Frame#	Time	RHip			RKnee			RAnkle			RBigToe			RSmallToe			RHeel			LHip			LKnee			LAnkle			LBigToe			LSmallToe			LHeel			Neck			Head			Nose			RShoulder			RElbow			RWrist			RThumb			RIndex			RPinky			LShoulder			LElbow			LWrist			LThumb			LIndex			LPinky			
		X1	Y1	Z1	X2	Y2	Z2	X3	Y3	Z3	X4	Y4	Z4	X5	Y5	Z5	X6	Y6	Z6	X7	Y7	Z7	X8	Y8	Z8	X9	Y9	Z9	X10	Y10	Z10	X11	Y11	Z11	X12	Y12	Z12	X13	Y13	Z13	X14	Y14	Z14	X15	Y15	Z15	X16	Y16	Z16	X17	Y17	Z17	X18	Y18	Z18	X19	Y19	Z19	X20	Y20	Z20	X21	Y21	Z21	X22	Y22	Z22	X23	Y23	Z23	X24	Y24	Z24	X25	Y25	Z25	X26	Y26	Z26	X27	Y27	Z27	
246	4.1	0.43292680654165605	0.5579577981826078	0.8234176355655409	0.4212267452587985	0.6280766534981603	1.2772296313341038	0.3838270642361025	0.7591619747594897	1.714849714513933	0.4025279486864079	0.5019058423206256	1.6823070325980247	0.44560192157905837	0.552148144669949	1.6932306217181026	0.3748736375037114	0.8205326425822331	1.7777161857730783	0.26362485149119674	0.4784701110118501	0.8119779287907212	0.22535341147852955	0.5989373019979205	1.2632751263025992	0.21666054560840048	0.6635965747142853	1.6805426674915804	0.2559455789930405	0.45336699679136083	1.6624359827432353	0.21009969448607985	0.4745557896810698	1.6656594189251464	0.23297005460636097	0.7518852929920643	1.744215316883736	0.38440029413582505	0.45029620570397594	0.35745671360729575	0.43960658808937475	0.3772432743929204	0.12310810925542487	0.4236785688467689	0.3038763388285078	0.24136339889751476	0.5178457185060639	0.5267924934458109	0.4432592476690311	0.5374577116775461	0.578708552846349	0.7051737288133784	0.5555684582367141	0.5636024153228676	0.9248128959303927	0.5094396698221596	0.48462567795320255	1.0346576915990582	0.5255041603802401	0.4858332360918705	1.0506261967993553	0.5490289471709817	0.5906291400664854	1.0595297917755335	0.23591277553976647	0.4459662146628119	0.4206387080690092	0.1827981024563666	0.5050142743490874	0.6704657176191621	0.17451626386947588	0.43306160390184884	0.8898787510817872	0.23097871496987943	0.42700257495820626	0.9865822954843144	0.2077560626612609	0.40524778104356685	1.0093511824348034	0.16947352692767462	0.46382974285592354	1.0235001897129956
247	4.116666666666666	0.43292638516609616	0.5580405895341026	0.8234467742862969	0.4205401641244574	0.625716654605866	1.272044666871917	0.3838276734551167	0.7591975092429499	1.7147684618371675	0.4045043592943724	0.5146843890845868	1.6881646593151507	0.444695378804539	0.5525301307035113	1.6976370909361462	0.3739025618171905	0.8173451743016907	1.7712107865304696	0.2636292467778244	0.47844439680550904	0.8119308069000949	0.23183332304703838	0.5846645686833595	1.2581108606974531	0.2166926128472715	0.6636313483143558	1.6805280121537864	0.25716559334325517	0.46678863412752153	1.6686152547500723	0.2106299816129697	0.47707231093794655	1.6712299847005696	0.23297090326888872	0.7519874128891781	1.7442159753480746	0.3844274157027059	0.4503178424194146	0.35743143439055214	0.4393567218748908	0.3775102606558926	0.11941917044201135	0.42373913568124505	0.30385133128682273	0.24136444791255662	0.5176417326034083	0.5272373426685706	0.44663785222887964	0.5374855917910746	0.5786458711239112	0.7051730203407602	0.5555771449856983	0.5635945265137029	0.9247371440765366	0.5101316458645767	0.48381408682912763	1.0308531867870352	0.534856063456316	0.47277264704706967	1.0463536419593145	0.5489492183443376	0.590511745444741	1.0590900468745792	0.23598348951284617	0.4459540532801103	0.42066327698592143	0.18289745341065128	0.5048757177683812	0.6704584609062275	0.1785284744467686	0.4349683446857015	0.8900796041191384	0.23083353988074873	0.4274981548760792	0.986702037152641	0.2019044515749136	0.41818962304705687	1.0130426376466866	0.16953478049200904	0.4636797281199212	1.0233511084040199
248	4.133333333333334	0.43288791717300534	0.5580121842534708	0.8234513042871484	0.4246081740382752	0.6275682552719204	1.2722398779754018	0.3838103444700369	0.7592832473332557	1.7147304160741383	0.4045237850386198	0.5147748130947436	1.6881984476345697	0.4446798470237681	0.5526174372728783	1.6976914076121628	0.3738196164566669	0.8171858355364338	1.7711226954907406	0.26364520015574794	0.4783637507270864	0.8119469436992426	0.23279421063062353	0.5837984352272363	1.254085434911618	0.22099963099214545	0.6670148224482777	1.68156303236157	0.2571113266383876	0.4670620971682702	1.6686801174894201	0.2105806341554098	0.4771950665221607	1.6712623348904339	0.23281211366089546	0.7519262507557074	1.74407302108203	0.3864639413040124	0.46262320691845615	0.357656479171378	0.43941390841377115	0.37752960926950874	0.11937760910658869	0.42720332078361767	0.305345959743124	0.24130271212126234	0.5178240729098217	0.5268905919270318	0.44331806597498746	0.537003653648346	0.5767159286278353	0.7011177091091109	0.5555528504815728	0.5637858279388941	0.9247891688992892	0.5101177029287367	0.4835813200854793	1.031007777457003	0.5307768459169162	0.48522968949359413	1.046738565681644	0.5488797478705296	0.5906706691696179	1.0590238506118788	0.23628309920299365	0.4453468495293671	0.4241841153207821	0.18292157914183635	0.5047964789035997	0.6704195887375369	0.17860382158375576	0.43474260371525336	0.8900376073922309	0.23076998220779943	0.42744121068541385	0.9866602080808489	0.20188757678064248	0.41789635269462344	1.0127495241049107	0.16965386140045802	0.46327664777882815	1.0232676217670795
249	4.15	0.43342129222333825	0.5600706179840007	0.8276415442221488	0.42424342066327414	0.6286677350281524	1.2684682919124985	0.3838039427790036	0.7592191623317754	1.7146605314941936	0.40460046745769424	0.5147173520654393	1.6881737981900318	0.4448049574313178	0.5524798768935374	1.6976016031885837	0.37380186557039563	0.8172518758962921	1.771067621013927	0.26364974287058324	0.47848493784968277	0.8118101738241504	0.23196738462662683	0.5845307389693809	1.2583559402233844	0.2209986781496998	0.66705015374241	1.681654207666804	0.25712554453148234	0.4671617874037057	1.66873424207555	0.21063715024121532	0.4771334144642649	1.6712332624221224	0.23279169995140983	0.7518965064248735	1.7441219178656355	0.3864858048697752	0.46264191142221583	0.3576291288374403	0.43944160344916433	0.37765361070233433	0.11935971441485127	0.42719375211768373	0.305434874528551	0.2412954058095682	0.5178776112471881	0.5268631462815202	0.4432169248142818	0.5374961181917023	0.5785976087090832	0.7052009546326153	0.5549963710860741	0.5614302992500052	0.9202059408649622	0.5100240781265075	0.48403068429400714	1.030951711963615	0.5300356550198942	0.4865811130866353	1.0505481683268023	0.5488205118966014	0.5905946443494206	1.0587396461668013	0.23591150267238334	0.445990319542548	0.4206296846623596	0.18288962176440676	0.5049537966411649	0.6703986147498655	0.17871670431058828	0.4347085102090964	0.8900377283086798	0.23044472141003025	0.41343580274536773	0.9802538667609513	0.2077566540358837	0.404887748085394	1.0089311852607739	0.16932488287732395	0.4609526180536472	1.0181950682296914
250	4.166666666666667	0.43836774298849046	0.5609446967582636	0.8240018359158572	0.4255330675981302	0.6295427196094051	1.2772365253881657	0.38382999922031086	0.75937808257433	1.7147014340386457	0.4065570590791636	0.5281577978012738	1.6942166979287592	0.4471487997245051	0.565924207891576	1.7035825379336744	0.37375168297119254	0.8170977971463639	1.7710583605634649	0.2681659231794498	0.48007516612045653	0.8158251314068506	0.23205433001025333	0.5842673491117493	1.2582107084532999	0.22105824655032286	0.6667617689196781	1.6815422164951395	0.2571602806810426	0.4673589433080614	1.6687138180960785	0.21070415655593927	0.4769453926658861	1.670995150995256	0.2328209084937825	0.7511126132405677	1.7436150411298201	0.3864878715697588	0.4626701883011849	0.35766695610956145	0.4394770816896805	0.37762848009505867	0.11935171855397514	0.42722981688384215	0.30528406636385064	0.2413545262265947	0.5176605240984338	0.5271758465462608	0.44653000694783973	0.5375187661699048	0.5786364037635227	0.7052515033598638	0.5560231979576807	0.5625068063735876	0.9284568065561201	0.5093720024150533	0.48454535368878454	1.0351509478116696	0.5302999053688765	0.47185654210360817	1.046605588061362	0.549349891024955	0.5896023352477708	1.0593621317542903	0.23624922164371787	0.4454052255227755	0.4241700341333915	0.1829470345196223	0.504755258274316	0.6703858424714773	0.17879785117417524	0.4348205616558265	0.8901836676327836	0.22990796517458295	0.4137949611439119	0.9835268125189941	0.20765314270498964	0.4047418182842868	1.008992295705623	0.17527789843097644	0.44933927822497677	1.015029947977148
251	4.183333333333334	0.4338725782980957	0.5589410331313552	0.8317610933053258	0.42481817516323084	0.6273272649924724	1.272301075987046	0.38983280455849323	0.742479311835818	1.7065263859387774	0.4045500705807532	0.5150790545808943	1.6883225707017115	0.4471223711006152	0.5659467960074823	1.703593593614326	0.3737231897756547	0.8167597046226708	1.770889819193787	0.26416802573126397	0.4774912698502018	0.8157419703020345	0.2347631545981567	0.5842860328757642	1.2568746806955635	0.22050567505088892	0.6639126108585607	1.675948979084713	0.2571213204545724	0.4673729476342365	1.6687102397007147	0.21063237639928512	0.47709059426180556	1.6710431526824678	0.2395566758228159	0.7338770767072482	1.7352877948659642	0.3864952191352412	0.46272533158564133	0.3576774752606408	0.43947821553420574	0.37757090746408495	0.11936913690671246	0.4273086725458246	0.3051191487849127	0.2415096086396905	0.517655420027574	0.5271145637700572	0.4465258901247604	0.537952557248282	0.5776547587657406	0.7091714451286131	0.5610274684053738	0.547975044250781	0.9249692940807427	0.5099358825721757	0.48301717252334003	1.038735217978749	0.5304698730267663	0.4714363588362958	1.0466615443284881	0.5493363454768374	0.5893466535786767	1.058892189397976	0.23620733214189302	0.44554170026077783	0.4242650767581602	0.18292278716986748	0.5048246445952501	0.6704923697473766	0.17892703765787482	0.4345491795950632	0.8902027410138151	0.23109102603977333	0.4268440547629886	0.9866041630695717	0.20748327130610547	0.4050331834337805	1.0093550871218897	0.1751691469555489	0.449290976900161	1.0151937339931143
252	4.2	0.442559058263154	0.5476483355922132	0.8364347111337357	0.4210551610356814	0.6276658974946181	1.2857054365333334	0.38997656157458144	0.7420860907220774	1.7066508865623644	0.4045188049303267	0.514839120107803	1.6882763322554355	0.44575335108861613	0.5516927760744011	1.6933125419820234	0.3747039278116157	0.8200588626139551	1.777460375553123	0.2729645521439971	0.46770112002133424	0.821006395388958	0.23596275522811877	0.5893295408784445	1.2684012538410097	0.2211356691677709	0.6665943785247473	1.681539822460664	0.2570209416496979	0.46680570175764324	1.6688420832563076	0.21062761757825163	0.47702337114407706	1.6713205323788363	0.23962969607151713	0.7339289495232523	1.7354328500872043	0.38625244896117106	0.46325072414349233	0.3611191134328679	0.44155451813641355	0.3879839500391605	0.11876157878706552	0.42746807631608874	0.3049245397569769	0.24163205062375545	0.5175715664553944	0.5274992603560104	0.44644746756384635	0.5380304557637798	0.5776324436430998	0.7092569878860234	0.5657666196487795	0.5341068979316679	0.9175985589377337	0.5103255052967238	0.48365457914551185	1.0302200515911917	0.5355374987705683	0.4718222085236651	1.0428801697680332	0.5519229220971394	0.6025130750679584	1.0612200358982842	0.23583888787086776	0.4459853779575054	0.4277524046536516	0.18288841792472718	0.5047703571878671	0.6705712826260709	0.17484750737835397	0.4322878509620713	0.889784434687967	0.22985385719891052	0.4136958070532129	0.9835088020674236	0.20737571427984103	0.4026110470255209	1.004672658197607	0.17526001998220794	0.4488364789443373	1.015079086330418
